<svg width="377" height="81" viewBox="0 0 377 81" fill="none" xmlns="http://www.w3.org/2000/svg">
<path d="M35.4407 36.5C35.4407 36.9142 35.7765 37.25 36.1907 37.25C36.6049 37.25 36.9407 36.9142 36.9407 36.5H35.4407ZM37.4407 40.5C37.4407 40.9142 37.7765 41.25 38.1907 41.25C38.6049 41.25 38.9407 40.9142 38.9407 40.5H37.4407ZM38.9407 44.5C38.9407 44.0858 38.6049 43.75 38.1907 43.75C37.7765 43.75 37.4407 44.0858 37.4407 44.5H38.9407ZM23.9407 34.5C23.9407 34.0858 23.6049 33.75 23.1907 33.75C22.7765 33.75 22.4407 34.0858 22.4407 34.5H23.9407ZM36.9407 36.5V33.5H35.4407V36.5H36.9407ZM36.9407 33.5C36.9407 32.5335 36.1572 31.75 35.1907 31.75V33.25C35.3287 33.25 35.4407 33.3619 35.4407 33.5H36.9407ZM35.1907 31.75H25.1907V33.25H35.1907V31.75ZM25.1907 31.75C23.6719 31.75 22.4407 32.9812 22.4407 34.5H23.9407C23.9407 33.8096 24.5003 33.25 25.1907 33.25V31.75ZM22.4407 34.5C22.4407 36.0188 23.6719 37.25 25.1907 37.25V35.75C24.5003 35.75 23.9407 35.1904 23.9407 34.5H22.4407ZM25.1907 37.25H37.1907V35.75H25.1907V37.25ZM37.1907 37.25C37.3287 37.25 37.4407 37.3619 37.4407 37.5H38.9407C38.9407 36.5335 38.1572 35.75 37.1907 35.75V37.25ZM37.4407 37.5V40.5H38.9407V37.5H37.4407ZM37.4407 44.5V47.5H38.9407V44.5H37.4407ZM37.4407 47.5C37.4407 47.6381 37.3287 47.75 37.1907 47.75V49.25C38.1572 49.25 38.9407 48.4665 38.9407 47.5H37.4407ZM37.1907 47.75H25.1907V49.25H37.1907V47.75ZM25.1907 47.75C24.5003 47.75 23.9407 47.1904 23.9407 46.5H22.4407C22.4407 48.0188 23.6719 49.25 25.1907 49.25V47.75ZM23.9407 46.5V34.5H22.4407V46.5H23.9407Z" fill="white" fill-opacity="0.16" style="mix-blend-mode:lighten"/>
<path d="M35.4407 36.5C35.4407 36.9142 35.7765 37.25 36.1907 37.25C36.6049 37.25 36.9407 36.9142 36.9407 36.5H35.4407ZM37.4407 40.5C37.4407 40.9142 37.7765 41.25 38.1907 41.25C38.6049 41.25 38.9407 40.9142 38.9407 40.5H37.4407ZM38.9407 44.5C38.9407 44.0858 38.6049 43.75 38.1907 43.75C37.7765 43.75 37.4407 44.0858 37.4407 44.5H38.9407ZM23.9407 34.5C23.9407 34.0858 23.6049 33.75 23.1907 33.75C22.7765 33.75 22.4407 34.0858 22.4407 34.5H23.9407ZM36.9407 36.5V33.5H35.4407V36.5H36.9407ZM36.9407 33.5C36.9407 32.5335 36.1572 31.75 35.1907 31.75V33.25C35.3287 33.25 35.4407 33.3619 35.4407 33.5H36.9407ZM35.1907 31.75H25.1907V33.25H35.1907V31.75ZM25.1907 31.75C23.6719 31.75 22.4407 32.9812 22.4407 34.5H23.9407C23.9407 33.8096 24.5003 33.25 25.1907 33.25V31.75ZM22.4407 34.5C22.4407 36.0188 23.6719 37.25 25.1907 37.25V35.75C24.5003 35.75 23.9407 35.1904 23.9407 34.5H22.4407ZM25.1907 37.25H37.1907V35.75H25.1907V37.25ZM37.1907 37.25C37.3287 37.25 37.4407 37.3619 37.4407 37.5H38.9407C38.9407 36.5335 38.1572 35.75 37.1907 35.75V37.25ZM37.4407 37.5V40.5H38.9407V37.5H37.4407ZM37.4407 44.5V47.5H38.9407V44.5H37.4407ZM37.4407 47.5C37.4407 47.6381 37.3287 47.75 37.1907 47.75V49.25C38.1572 49.25 38.9407 48.4665 38.9407 47.5H37.4407ZM37.1907 47.75H25.1907V49.25H37.1907V47.75ZM25.1907 47.75C24.5003 47.75 23.9407 47.1904 23.9407 46.5H22.4407C22.4407 48.0188 23.6719 49.25 25.1907 49.25V47.75ZM23.9407 46.5V34.5H22.4407V46.5H23.9407Z" fill="#5E5E5E" fill-opacity="0.36" style="mix-blend-mode:color-dodge"/>
<path d="M39.1907 40.5V44.5H35.1907C34.0861 44.5 33.1907 43.6046 33.1907 42.5C33.1907 41.3954 34.0861 40.5 35.1907 40.5H39.1907" stroke="white" stroke-opacity="0.16" stroke-width="1.5" stroke-linecap="round" stroke-linejoin="round" style="mix-blend-mode:lighten"/>
<path d="M39.1907 40.5V44.5H35.1907C34.0861 44.5 33.1907 43.6046 33.1907 42.5C33.1907 41.3954 34.0861 40.5 35.1907 40.5H39.1907" stroke="#5E5E5E" stroke-opacity="0.36" stroke-width="1.5" stroke-linecap="round" stroke-linejoin="round" style="mix-blend-mode:color-dodge"/>
<circle cx="102.161" cy="35.5" r="4" stroke="#FEFEFE" stroke-width="1.5" stroke-linecap="round" stroke-linejoin="round"/>
<path d="M96.1609 49.5V47.5C96.1609 45.2909 97.9517 43.5 100.161 43.5H104.161C106.37 43.5 108.161 45.2909 108.161 47.5V49.5" stroke="#FEFEFE" stroke-width="1.5" stroke-linecap="round" stroke-linejoin="round"/>
<path d="M109.161 31.6299C110.931 32.0831 112.169 33.6779 112.169 35.5049C112.169 37.3319 110.931 38.9267 109.161 39.3799" stroke="#FEFEFE" stroke-width="1.5" stroke-linecap="round" stroke-linejoin="round"/>
<path d="M114.161 49.4999V47.4999C114.15 45.6845 112.919 44.1037 111.161 43.6499" stroke="#FEFEFE" stroke-width="1.5" stroke-linecap="round" stroke-linejoin="round"/>
<rect x="158.146" y="10.5" width="60" height="60" rx="30" fill="white" fill-opacity="0.07"/>
<rect x="158.146" y="10.5" width="60" height="60" rx="30" fill="#5E5E5E" fill-opacity="0.18" style="mix-blend-mode:color-dodge"/>
<path d="M184.796 37.0238L184.794 37.0247L184.791 37.0266L184.796 37.0238ZM194.238 36.8464C194.172 36.7827 194.099 36.727 194.02 36.6804C193.908 36.6146 193.784 36.5724 193.655 36.5564C193.526 36.5405 193.396 36.5511 193.271 36.5876C193.147 36.6242 193.031 36.6859 192.931 36.7689C192.832 36.8519 192.75 36.9544 192.692 37.0702C192.365 37.7142 191.914 38.2874 191.366 38.7568C191.45 38.284 191.492 37.8047 191.493 37.3245C191.494 35.8638 191.109 34.4287 190.376 33.1654C189.643 31.902 188.588 30.8555 187.319 30.1324C187.179 30.0529 187.021 30.0103 186.86 30.0086C186.7 30.0069 186.541 30.0461 186.399 30.1225C186.258 30.199 186.138 30.3102 186.051 30.4456C185.965 30.5811 185.914 30.7364 185.904 30.8969C185.851 31.7963 185.615 32.6755 185.212 33.4813C184.81 34.2871 184.247 35.0027 183.56 35.5848L183.342 35.7622C182.622 36.2462 181.985 36.8429 181.456 37.5293C180.633 38.5662 180.062 39.7807 179.79 41.0763C179.518 42.3719 179.552 43.7131 179.889 44.9935C180.225 46.2739 180.855 47.4582 181.729 48.4526C182.603 49.447 183.697 50.224 184.924 50.7221C185.068 50.7807 185.224 50.803 185.379 50.7871C185.533 50.7711 185.682 50.7174 185.811 50.6307C185.94 50.5439 186.045 50.4267 186.119 50.2895C186.192 50.1523 186.23 49.9992 186.23 49.8437C186.229 49.7432 186.213 49.6435 186.182 49.5478C185.97 48.7501 185.909 47.9197 186.002 47.0995C186.9 48.7923 188.341 50.134 190.093 50.909C190.307 51.0045 190.549 51.0174 190.772 50.945C192.156 50.4981 193.403 49.7046 194.395 48.64C195.386 47.5754 196.089 46.2749 196.436 44.8622C196.783 43.4495 196.764 41.9715 196.379 40.5685C195.994 39.1655 195.257 37.8843 194.238 36.8464ZM190.534 49.0175C189.707 48.5985 188.977 48.0102 188.393 47.2908C187.808 46.5714 187.381 45.737 187.141 44.8419C187.067 44.5405 187.01 44.2352 186.97 43.9275C186.943 43.7315 186.855 43.5489 186.719 43.4052C186.583 43.2615 186.406 43.1638 186.212 43.1259C186.152 43.1143 186.092 43.1086 186.031 43.1089C185.864 43.1087 185.7 43.1524 185.556 43.2357C185.412 43.319 185.292 43.4388 185.208 43.5831C184.421 44.9408 184.026 46.4898 184.065 48.0585C183.373 47.5204 182.794 46.8502 182.363 46.0868C181.932 45.3234 181.656 44.4819 181.552 43.6113C181.449 42.7406 181.519 41.8579 181.759 41.0145C181.998 40.1711 182.403 39.3837 182.95 38.698C183.365 38.159 183.865 37.6918 184.431 37.315C184.456 37.2991 184.48 37.2817 184.503 37.2628C184.503 37.2628 184.783 37.0304 184.793 37.0257C186.145 35.8827 187.106 34.3464 187.544 32.6309C188.577 33.5865 189.266 34.8565 189.504 36.2438C189.741 37.6311 189.514 39.058 188.857 40.303C188.771 40.4691 188.735 40.6573 188.755 40.8438C188.775 41.0302 188.85 41.2066 188.97 41.3505C189.09 41.4944 189.25 41.5995 189.43 41.6525C189.61 41.7054 189.802 41.7039 189.981 41.648C191.434 41.1924 192.712 40.3025 193.644 39.0983C194.204 39.9257 194.571 40.8688 194.716 41.8575C194.861 42.8462 194.781 43.8548 194.482 44.8083C194.183 45.7618 193.673 46.6355 192.989 47.3643C192.305 48.0931 191.466 48.6582 190.534 49.0175Z" fill="white" fill-opacity="0.16" style="mix-blend-mode:lighten"/>
<path d="M184.796 37.0238L184.794 37.0247L184.791 37.0266L184.796 37.0238ZM194.238 36.8464C194.172 36.7827 194.099 36.727 194.02 36.6804C193.908 36.6146 193.784 36.5724 193.655 36.5564C193.526 36.5405 193.396 36.5511 193.271 36.5876C193.147 36.6242 193.031 36.6859 192.931 36.7689C192.832 36.8519 192.75 36.9544 192.692 37.0702C192.365 37.7142 191.914 38.2874 191.366 38.7568C191.45 38.284 191.492 37.8047 191.493 37.3245C191.494 35.8638 191.109 34.4287 190.376 33.1654C189.643 31.902 188.588 30.8555 187.319 30.1324C187.179 30.0529 187.021 30.0103 186.86 30.0086C186.7 30.0069 186.541 30.0461 186.399 30.1225C186.258 30.199 186.138 30.3102 186.051 30.4456C185.965 30.5811 185.914 30.7364 185.904 30.8969C185.851 31.7963 185.615 32.6755 185.212 33.4813C184.81 34.2871 184.247 35.0027 183.56 35.5848L183.342 35.7622C182.622 36.2462 181.985 36.8429 181.456 37.5293C180.633 38.5662 180.062 39.7807 179.79 41.0763C179.518 42.3719 179.552 43.7131 179.889 44.9935C180.225 46.2739 180.855 47.4582 181.729 48.4526C182.603 49.447 183.697 50.224 184.924 50.7221C185.068 50.7807 185.224 50.803 185.379 50.7871C185.533 50.7711 185.682 50.7174 185.811 50.6307C185.94 50.5439 186.045 50.4267 186.119 50.2895C186.192 50.1523 186.23 49.9992 186.23 49.8437C186.229 49.7432 186.213 49.6435 186.182 49.5478C185.97 48.7501 185.909 47.9197 186.002 47.0995C186.9 48.7923 188.341 50.134 190.093 50.909C190.307 51.0045 190.549 51.0174 190.772 50.945C192.156 50.4981 193.403 49.7046 194.395 48.64C195.386 47.5754 196.089 46.2749 196.436 44.8622C196.783 43.4495 196.764 41.9715 196.379 40.5685C195.994 39.1655 195.257 37.8843 194.238 36.8464ZM190.534 49.0175C189.707 48.5985 188.977 48.0102 188.393 47.2908C187.808 46.5714 187.381 45.737 187.141 44.8419C187.067 44.5405 187.01 44.2352 186.97 43.9275C186.943 43.7315 186.855 43.5489 186.719 43.4052C186.583 43.2615 186.406 43.1638 186.212 43.1259C186.152 43.1143 186.092 43.1086 186.031 43.1089C185.864 43.1087 185.7 43.1524 185.556 43.2357C185.412 43.319 185.292 43.4388 185.208 43.5831C184.421 44.9408 184.026 46.4898 184.065 48.0585C183.373 47.5204 182.794 46.8502 182.363 46.0868C181.932 45.3234 181.656 44.4819 181.552 43.6113C181.449 42.7406 181.519 41.8579 181.759 41.0145C181.998 40.1711 182.403 39.3837 182.95 38.698C183.365 38.159 183.865 37.6918 184.431 37.315C184.456 37.2991 184.48 37.2817 184.503 37.2628C184.503 37.2628 184.783 37.0304 184.793 37.0257C186.145 35.8827 187.106 34.3464 187.544 32.6309C188.577 33.5865 189.266 34.8565 189.504 36.2438C189.741 37.6311 189.514 39.058 188.857 40.303C188.771 40.4691 188.735 40.6573 188.755 40.8438C188.775 41.0302 188.85 41.2066 188.97 41.3505C189.09 41.4944 189.25 41.5995 189.43 41.6525C189.61 41.7054 189.802 41.7039 189.981 41.648C191.434 41.1924 192.712 40.3025 193.644 39.0983C194.204 39.9257 194.571 40.8688 194.716 41.8575C194.861 42.8462 194.781 43.8548 194.482 44.8083C194.183 45.7618 193.673 46.6355 192.989 47.3643C192.305 48.0931 191.466 48.6582 190.534 49.0175Z" fill="#5E5E5E" fill-opacity="0.36" style="mix-blend-mode:color-dodge"/>
<rect x="263.131" y="32.5" width="16" height="6" rx="2" stroke="white" stroke-opacity="0.16" stroke-width="1.5" stroke-linecap="round" stroke-linejoin="round" style="mix-blend-mode:lighten"/>
<rect x="263.131" y="32.5" width="16" height="6" rx="2" stroke="#5E5E5E" stroke-opacity="0.36" stroke-width="1.5" stroke-linecap="round" stroke-linejoin="round" style="mix-blend-mode:color-dodge"/>
<rect x="263.131" y="42.5" width="16" height="6" rx="2" stroke="white" stroke-opacity="0.16" stroke-width="1.5" stroke-linecap="round" stroke-linejoin="round" style="mix-blend-mode:lighten"/>
<rect x="263.131" y="42.5" width="16" height="6" rx="2" stroke="#5E5E5E" stroke-opacity="0.36" stroke-width="1.5" stroke-linecap="round" stroke-linejoin="round" style="mix-blend-mode:color-dodge"/>
<path d="M343.101 34.5H340.101C338.997 34.5 338.101 35.3954 338.101 36.5V45.5C338.101 46.6046 338.997 47.5 340.101 47.5H349.101C350.206 47.5 351.101 46.6046 351.101 45.5V42.5" stroke="white" stroke-opacity="0.16" stroke-width="1.5" stroke-linecap="round" stroke-linejoin="round" style="mix-blend-mode:lighten"/>
<path d="M343.101 34.5H340.101C338.997 34.5 338.101 35.3954 338.101 36.5V45.5C338.101 46.6046 338.997 47.5 340.101 47.5H349.101C350.206 47.5 351.101 46.6046 351.101 45.5V42.5" stroke="#5E5E5E" stroke-opacity="0.36" stroke-width="1.5" stroke-linecap="round" stroke-linejoin="round" style="mix-blend-mode:color-dodge"/>
<circle cx="350.101" cy="35.5" r="3" stroke="white" stroke-opacity="0.16" stroke-width="1.5" stroke-linecap="round" stroke-linejoin="round" style="mix-blend-mode:lighten"/>
<circle cx="350.101" cy="35.5" r="3" stroke="#5E5E5E" stroke-opacity="0.36" stroke-width="1.5" stroke-linecap="round" stroke-linejoin="round" style="mix-blend-mode:color-dodge"/>
</svg>


